<?xml version="1.0" encoding="utf-8"?>
<!-- Generator: Adobe Illustrator 24.1.3, SVG Export Plug-In . SVG Version: 6.00 Build 0)  -->
<svg version="1.1" id="Capa_1" xmlns="http://www.w3.org/2000/svg" xmlns:xlink="http://www.w3.org/1999/xlink" x="0px" y="0px"
	 viewBox="0 0 512 512" style="enable-background:new 0 0 512 512;" xml:space="preserve">
<style type="text/css">
	.st0{fill:#FFFFFF;}
</style>
<g>
	<path class="st0" d="M471,330c0-24.1-17.2-44.3-40-49v-54c0-4.9-2.4-9.5-6.5-12.3c-4-2.8-9.2-3.4-13.8-1.7l-28.6,10.7
		c-18.8-19.5-41.7-34.3-66.7-43.3C340,162.2,356,132.9,356,100C356,44.9,311.1,0,256,0S156,44.9,156,100c0,32.9,16,62.2,40.6,80.4
		c-25,9-47.9,23.8-66.7,43.3L101.3,213c-4.6-1.7-9.8-1.1-13.8,1.7c-4,2.8-6.5,7.4-6.5,12.3v54c-22.8,4.6-40,24.8-40,49
		s17.2,44.3,40,49v58c0,6.3,3.9,11.9,9.7,14l160,60c3.4,1.3,7.2,1.3,10.5,0l160-60c5.9-2.2,9.7-7.8,9.7-14v-58
		C453.8,374.4,471,354.2,471,330z M186,100c0-38.6,31.4-70,70-70s70,31.4,70,70s-31.4,70-70,70S186,138.6,186,100z M256,200
		c35.1,0,68.7,12.7,94.9,35.4L256,271l-94.9-35.6C187.3,212.7,220.9,200,256,200L256,200z M71,330c0-11,9-20,20-20h10v40H91
		C80,350,71,341,71,330z M111,379.5c11.4-2.3,20-12.4,20-24.5v-50c0-12.1-8.6-22.2-20-24.5v-31.9l130,48.8v178l-130-48.8V379.5z
		 M271,475.4v-178l130-48.8v31.9c-11.4,2.3-20,12.4-20,24.5v50c0,12.1,8.6,22.2,20,24.5v47.1L271,475.4z M421,350h-10v-40h10
		c11,0,20,9,20,20C441,341,432,350,421,350z"/>
</g>
</svg>
