<?xml version="1.0" encoding="utf-8"?>
<!-- Generator: Adobe Illustrator 24.1.3, SVG Export Plug-In . SVG Version: 6.00 Build 0)  -->
<svg version="1.1" id="Capa_1" xmlns="http://www.w3.org/2000/svg" xmlns:xlink="http://www.w3.org/1999/xlink" x="0px" y="0px"
	 viewBox="0 0 512 512" xml:space="preserve">
<style type="text/css">
	.st0{fill:#FFFFFF;}
</style>
<g>
	<g>
		<path class="st0" d="M456.6,184.3c20.1-13.9,33.3-37.2,33.3-63.6c0-42.6-34.4-77.2-76.8-77.2c-42.3,0-76.8,34.6-76.8,77.2
			c0,26.3,13.2,49.6,33.3,63.6c-17.9,7.2-33,20.2-42.8,36.6c-7-13.9-18.6-25.2-32.7-31.9c14.1-11.3,23.2-28.7,23.2-48.2
			c0-33.9-27.5-61.5-61.2-61.5s-61.2,27.6-61.2,61.5c0,19.5,9.1,36.9,23.2,48.2c-14.1,6.7-25.7,18-32.7,31.9
			c-9.9-16.4-24.9-29.4-42.8-36.6c20.1-13.9,33.3-37.2,33.3-63.6c0-42.6-34.4-77.2-76.8-77.2s-76.8,34.6-76.8,77.2
			c0,26.3,13.2,49.6,33.3,63.6C22.9,197.3,0,229.1,0,266.2v49.4c0,5.5,4.5,10,10,10h130.4c-0.3,3-0.5,6.1-0.5,9.3
			c0,78.2,107.2,130.4,111.8,132.6c1.3,0.6,2.8,1,4.3,1c0.1,0,0.2,0,0.3,0l0.5,0c1.4,0,2.8-0.4,4-1c4.5-2.2,111.3-54.4,111.3-132.6
			c0-3.2-0.2-6.3-0.5-9.3h2.9c5.5,0,10-4.5,10-10s-4.5-10-10-10h-7.7c-6.3-16.5-17.9-30-32.6-38.2v-1.2c0-37.7,30.6-68.3,68.3-68.3
			h21.2c37.7,0,68.3,30.6,68.3,68.3v39.4h-27.1c-5.5,0-10,4.5-10,10s4.5,10,10,10H502c5.5,0,10-4.5,10-10v-49.4
			C512,229.1,489.1,197.3,456.6,184.3L456.6,184.3z M256,99.2c22.7,0,41.2,18.6,41.2,41.5s-18.5,41.5-41.2,41.5
			s-41.2-18.6-41.2-41.5S233.3,99.2,256,99.2L256,99.2z M247.9,202.3h16.3c27.6,0,50.1,22.5,50.1,50.1v7.7c-4.5-0.9-9.2-1.4-14-1.4
			c-16.7,0-31.8,5.6-44.2,16.3c-9.9-8.6-24.4-16.3-44.2-16.3c-4.8,0-9.5,0.5-14,1.4v-7.7C197.8,224.7,220.3,202.3,247.9,202.3
			L247.9,202.3z M42.1,120.7c0-31.5,25.5-57.2,56.8-57.2s56.8,25.7,56.8,57.2s-25.5,57.2-56.8,57.2
			C67.6,177.9,42.1,152.2,42.1,120.7z M20,305.6v-39.4c0-37.7,30.6-68.3,68.3-68.3h21.2c37.7,0,68.3,30.6,68.3,68.3v1.2
			c-14.7,8.2-26.3,21.7-32.6,38.2H20z M352.1,334.9c0,57.9-77.1,102.5-95.9,112.4c-18.9-10-96.3-54.6-96.3-112.4
			c0-31.5,22.8-56.3,52-56.3c18.1,0,29.9,9.2,36.6,17c1.9,2.2,4.7,3.4,7.7,3.4c2.9,0,5.7-1.4,7.6-3.6c0.1-0.1,0.2-0.2,0.3-0.3
			c9.7-11,21.9-16.5,36.2-16.5C329.3,278.6,352.1,303.4,352.1,334.9z M356.3,120.7c0-31.5,25.5-57.2,56.8-57.2s56.8,25.7,56.8,57.2
			s-25.5,57.2-56.8,57.2S356.3,152.2,356.3,120.7z"/>
		<path class="st0" d="M429.1,311.8c-1.6-3.9-5.7-6.5-9.9-6.1c-4.2,0.3-7.7,3.2-8.9,7.2c-1.2,4,0.4,8.4,3.8,10.9
			c3.3,2.4,8,2.5,11.4,0.2C429.4,321.3,430.9,316.1,429.1,311.8L429.1,311.8z"/>
	</g>
</g>
</svg>
