<?xml version="1.0" encoding="utf-8"?>
<!-- Generator: Adobe Illustrator 24.1.3, SVG Export Plug-In . SVG Version: 6.00 Build 0)  -->
<svg version="1.1" id="Capa_1" xmlns="http://www.w3.org/2000/svg" xmlns:xlink="http://www.w3.org/1999/xlink" x="0px" y="0px"
	 viewBox="0 0 505.4 505.4" style="enable-background:new 0 0 505.4 505.4;" xml:space="preserve">
<style type="text/css">
	.st0{fill:#FFFFFF;}
</style>
<g>
	<g>
		<path class="st0" d="M437.1,233.5c14.8-10.4,24.6-27.7,24.6-47.2c0-31.9-25.8-57.7-57.7-57.7s-57.7,25.8-57.7,57.7
			c0,19.5,9.7,36.8,24.6,47.2c-12.7,4.4-24.3,11.2-34.1,20C323.3,242,307.4,233.2,290,228c21.1-12.8,35.3-36.1,35.3-62.6
			c0-40.4-32.7-73.1-73.1-73.1s-73.1,32.8-73.1,73.1c0,26.5,14.1,49.8,35.3,62.6c-17.2,5.2-32.9,13.9-46.3,25.2
			c-9.8-8.6-21.2-15.3-33.7-19.6c14.8-10.4,24.6-27.7,24.6-47.2c0-31.9-25.8-57.7-57.7-57.7s-57.7,25.8-57.7,57.7
			c0,19.5,9.7,36.8,24.6,47.2C28.5,247.3,0,285,0,329.3v6.6c0,0.2,0.2,0.4,0.4,0.4h122.3c-0.7,5.5-1.1,11.2-1.1,16.9v6.8
			c0,29.4,23.8,53.2,53.2,53.2h155c29.4,0,53.2-23.8,53.2-53.2v-6.8c0-5.7-0.4-11.4-1.1-16.9H505c0.2,0,0.4-0.2,0.4-0.4v-6.6
			C505.2,284.9,476.8,247.2,437.1,233.5z M362.3,186.2c0-23,18.7-41.7,41.7-41.7s41.7,18.7,41.7,41.7c0,22.7-18.3,41.2-40.9,41.7
			c-0.3,0-0.5,0-0.8,0s-0.5,0-0.8,0C380.5,227.5,362.3,209,362.3,186.2z M194.9,165.4c0-31.5,25.6-57.1,57.1-57.1
			s57.1,25.6,57.1,57.1c0,30.4-23.9,55.3-53.8,57c-1.1,0-2.2,0-3.3,0s-2.2,0-3.3,0C218.8,220.7,194.9,195.8,194.9,165.4z
			 M59.3,186.2c0-23,18.7-41.7,41.7-41.7s41.7,18.7,41.7,41.7c0,22.7-18.3,41.2-40.9,41.7c-0.3,0-0.5,0-0.8,0s-0.5,0-0.8,0
			C77.6,227.5,59.3,209,59.3,186.2z M125.5,320.2H16.2c4.5-42.6,40.5-76,84.2-76.3c0.2,0,0.4,0,0.6,0s0.4,0,0.6,0
			c20.8,0.1,39.8,7.8,54.5,20.3C141.7,279.8,131,299,125.5,320.2z M366.8,360c0,20.5-16.7,37.2-37.2,37.2h-155
			c-20.5,0-37.2-16.7-37.2-37.2v-6.8c0-62.1,49.6-112.9,111.3-114.7c1.1,0.1,2.3,0.1,3.4,0.1s2.3,0,3.4-0.1
			c61.7,1.8,111.3,52.6,111.3,114.7V360z M378.7,320.2c-5.5-21.1-16-40-30.3-55.6c14.8-12.8,34-20.5,55-20.7c0.2,0,0.4,0,0.6,0
			s0.4,0,0.6,0c43.7,0.3,79.7,33.7,84.2,76.3H378.7z"/>
	</g>
</g>
</svg>
